<svg xmlns="http://www.w3.org/2000/svg" viewBox="0 0 512 512">
  <rect width="512" height="512" fill="#ffffff"/>
  <path d="M448 112H64c-17.67 0-32 14.33-32 32v256c0 17.67 14.33 32 32 32h384c17.67 0 32-14.33 32-32V144c0-17.67-14.33-32-32-32zm-32 240H96V160h320v192z" fill="#facc15" stroke="#000000" stroke-width="24"/>
  <path d="M256 192c-35.35 0-64 28.65-64 64s28.65 64 64 64 64-28.65 64-64-28.65-64-64-64zm0 96c-17.67 0-32-14.33-32-32s14.33-32 32-32 32 14.33 32 32-14.33 32-32 32z" fill="#facc15" stroke="#000000" stroke-width="24"/>
  <path d="M256 224v64" stroke="#000000" stroke-width="24" stroke-linecap="round"/>
</svg>
